<svg xmlns="http://www.w3.org/2000/svg" version="1.1" xmlns:xlink="http://www.w3.org/1999/xlink" viewBox="0 0 1422 800" style="overflow: hidden; display: block;" width="700" height="700"><defs></defs><g id="two-0" transform="matrix(1 0 0 1 0 0)" opacity="1"></g><path d="M 626.7955694659162 89.8311031852928 Q 626.7955694659162 89.8311031852928 606.9244321758326 108.0811856538797 587.0532948857492 126.3312681224666 559.1258356396975 153.98036873109558 531.1983763936458 181.62946933972455 514.8208713087316 196.58656250886912 498.44336622381735 211.5436556780137 484.1186050725722 225.1118915012001 469.79384392132704 238.6801273243865 440.18147839991985 270.65207131553154 410.56911287851267 302.62401530667654 396.73035189571453 317.03299803879855 382.89159091291646 331.44198077092057 370.4777241220859 345.0411767667559 358.0638573312553 358.6403727625912 348.1678204653012 370.96088817812733 338.2717835993471 383.28140359366347 328.3332422379212 395.67624504143004 318.3947008764953 408.0710864891966 310.9790672442632 418.5456488106191 303.5634336120311 429.0202111320417 293.7229671629955 445.60115758230654 283.8825007139598 462.1821040325713 277.10932787955585 475.7206270410919 270.33615504515194 489.2591500496125 266.4335307230821 509.88766968622383 262.5309064010122 530.5161893228351 279.65570111421016 536.9329176444512 296.7804958274081 543.3496459660673 309.3482272989444 541.0020792391863 321.91595877048064 538.6545125123054 338.8674162213637 530.9834484558496 355.8188736722468 523.312384399394 388.6304398764577 504.7157184427674 421.44200608066853 486.11905248614084 438.9800792739229 474.6510000746748 456.51815246717734 463.18294766320884 471.6822160798863 454.5882083427507 486.8462796925952 445.9934690222925 503.60472411278863 435.63807339207415 520.3631685329821 425.28267776185584 537.1722398439429 414.8337276558315 553.9813111549038 404.3847775498072 584.236853257924 383.495869331334 614.4923953609443 362.6069611128608 631.4544554245846 351.9762457575953 648.4165154882248 341.3455304023297 664.7197671417721 333.211336174018 681.0230187953193 325.07714194570633 695.7972513350484 315.8859150275256 710.5714838747774 306.69468810934484 721.8528377091658 300.4402966058934 733.1341915435542 294.185905102442 746.7802750593842 286.7588562345887 760.4263585752142 279.33180736673535 780.8789341509336 268.80397429125753 801.3315097266529 258.27614121577966 818.4922863869012 247.90883053481969 835.6530630471494 237.54151985385968 854.7723932028705 227.5344949190934 873.8917233585915 217.5274699843271 885.9876287430334 211.85328880370082 898.0835341274752 206.17910762307454 914.714461599252 199.1219007423963 931.3453890710286 192.064693861718 947.3304027486198 185.9513900792159 963.315416426211 179.83808629671378 980.1041693635452 183.21665751032555 996.8929223008794 186.5952287239373 988.2961880316952 206.39221269644156 979.699453762511 226.18919666894578 967.9728567293585 240.81189616727872 956.246259696206 255.43459566561165 943.8983419870989 272.3010644971321 931.5504242779917 289.16753332865255 908.2512492118396 321.0725362701363 884.9520741456876 352.9775392116201 875.1113478405691 363.7055629978739 865.2706215354508 374.4335867841278 850.9709496144874 391.2692956836579 836.671277693524 408.1050045831881 825.9655888723014 421.842962490986 815.2599000510788 435.580920398784 808.2955352948775 451.9992582232884 801.3311705386761 468.41759604779287 823.8595710000914 475.15911689838856 846.3879714615065 481.90063774898425 864.7748570458684 486.4413701701325 883.1617426302305 490.98210259128064 892.4809395564935 501.7635805253941 901.8001364827566 512.5450584595076 910.3931589348036 532.2532303420335 918.9861813868507 551.9614022245595 925.3022618200384 563.9402047588235 931.6183422532262 575.9190072930875 933.7239452812921 579.144354197578 935.829548309358 582.3697011020685 935.4431504356414 584.7276056129676 935.0567525619249 587.0855101238667 933.937677034427 589.1965968021171 932.8186015069291 591.3076834803676 931.084015828786 592.9509209934836 929.3494301506429 594.5941585065997 927.1809459002424 595.5974994531857 925.0124616498418 596.6008403997716 922.637119700625 596.8592347178636 920.2617777514082 597.1176290359556 917.9282770324876 596.6040227722399 915.594776313567 596.0904165085242 913.5474349661979 594.8585843743907 911.5000936188287 593.6267522402572 909.9532688225263 591.8056673853218 908.4064440262238 589.9845825303865 907.522088745483 587.7649130196808 906.637733464742 585.5452435089749 906.5084399309035 583.1593893262054 906.379146397065 580.7735351434359 907.0184516772518 578.471295851343 907.6577569574387 576.1690565592502 908.9987256200552 574.1914772194482 910.3396942826716 572.2138978796462 912.2419265547604 570.7680315710426 914.1441588268492 569.322165262439 916.4084904873821 568.5593945692162 918.672822147915 567.7966238759934 921.0621770743087 567.7968110910838 923.4515320007024 567.7969983061743 925.7157441014349 568.5601238281084 927.9799562021675 569.3232493500426 929.8819618725984 570.7694137352285 931.7839675430291 572.2155781204144 933.1246262873834 574.1933675759726 934.4652850317377 576.1711570315309 935.104229525582 578.473496479379 935.7431740194262 580.775835927227 935.6135066055899 583.1616698194166 935.4838391917538 585.547503711606 934.5991360826947 587.7670346098258 933.7144329736356 589.9865655080456 932.1673228184109 591.8074079413527 930.6202126631862 593.6282503746598 928.5726783034454 594.8597616596314 926.5251439437047 596.0912729446029 924.1915627674093 596.604513524615 921.857981591114 597.117754104627 919.4826801634277 596.8589875554699 917.1073787357415 596.6002210063127 914.9390517431617 595.596540253991 912.770724750582 594.5928595016692 911.0363966016146 592.9493501858968 909.3020684526472 591.3058408701245 908.1833237623073 589.1945788501073 907.0645790719673 587.0833168300901 906.6785507046532 584.7253517966428 906.2925223373392 582.3673867631956 906.2925221637638 582.3696020401601 906.2925219901883 582.3718173171245 907.2653101874448 585.6265891690844 908.2380983847012 588.8813610210443 901.9655915311864 575.85868565707 895.6930846776717 562.8360102930957 889.7145478958192 551.2082784317306 883.7360111139668 539.5805465703655 878.3240947750005 524.298666974108 872.9121784360341 509.0167873778504 859.6500746733452 505.3599546907692 846.3879709106562 501.70312200368807 832.8091860769249 503.4219350682037 819.2304012431936 505.14074813271935 804.2881107470262 503.82220208926856 789.3458202508589 502.5036560458178 785.6670437503287 488.22266375890194 781.9882672497986 473.9416714719861 786.3865939831628 462.37267599125244 790.7849207165269 450.8036805105187 798.5099895614294 439.72316474528714 806.235058406332 428.6426489800556 817.8723692594685 415.09584134566194 829.5096801126051 401.54903371126824 843.789895988461 384.8305814980264 858.0701118643169 368.1121292847846 867.0698221602149 357.3818076638962 876.0695324561128 346.6514860430079 898.4851348705125 314.2950581723827 920.9007372849122 281.9386303017576 932.1037605322655 264.10923785115847 943.3067837796187 246.2798454005594 955.6357528103017 222.3204587223334 967.9647218409848 198.36107204410737 952.8803134066948 202.21531887709114 937.7959049724047 206.06956571007493 920.9809950538208 211.40852921562515 904.1660851352368 216.74749272117535 891.3221221734649 221.0725865495995 878.478159211693 225.39768037802364 859.2206362500016 235.18910603249597 839.9631132883102 244.9805316869683 822.163134341452 254.56966489142326 804.3631553945938 264.15879809587824 783.9899486542166 274.6694613076804 763.6167419138394 285.18012451948266 750.0096697905446 292.6204923623151 736.4025976672499 300.0608602051475 725.2884652925701 306.26572872492636 714.1743329178903 312.47059724470523 699.1512449054838 321.8686968617729 684.1281568930774 331.26679647884055 668.1614613514514 339.3050190525046 652.1947658098254 347.3432416261686 635.4286847478418 357.98167970301813 618.6626036858581 368.6201177798677 588.3573066472445 389.7347609585487 558.0520096086309 410.84940413722967 541.3632387167936 421.49158914849926 524.6744678249564 432.13377415976885 507.9660640241931 442.83859877126986 491.25766022342975 453.5434233827708 476.60122642003194 462.3718601187895 461.9447926166342 471.2002968548083 444.48266895002314 483.4300163680193 427.02054528341216 495.6597358812303 394.3407454344091 515.3438259987329 361.660945585406 535.0279161162355 343.9378071905768 544.6413334658307 326.21466879574757 554.2547508154258 311.5934760934123 559.2879383160323 296.972283391077 564.3211258166386 283.025920008894 563.8319636694816 269.079556626711 563.3428015223246 258.88822899269815 549.85161433802 248.69690135868535 536.3604271537152 251.58748090486034 522.962781330704 254.47806045103536 509.56513550769273 258.12165450646614 496.88573188603095 261.7652485618969 484.2063282643691 269.9861318648922 471.5109341905573 278.2070151678874 458.81554011674547 288.1754328109881 442.0035667442128 298.1438504540888 425.19159337168014 305.6584641618871 414.54311688397945 313.1730778696853 403.8946403962788 323.0856352779172 391.4758860929928 332.99819268614914 379.05713178970683 342.9952760240753 366.5430288886276 352.9923593620014 354.02892598754835 365.41531091887214 340.320260659377 377.83826247574285 326.6115953312057 391.56619000353044 312.18200935551226 405.29411753131797 297.7524233798188 434.97057796231434 265.5256659201341 464.6470383933107 233.2989084604493 478.89103804298486 219.54942796502542 493.13503769265907 205.79994746960153 509.21412736491493 190.76084069395918 525.2932170371708 175.72173391831683 553.0559954079863 147.70153183286163 580.8187737788016 119.68132974740645 600.3116509845677 101.02765997295135 619.8045281903338 82.37399019849626 620.3014830571626 82.00988669277922 620.7984379239913 81.64578318706218 621.3680896624629 81.41119333349565 621.9377414009346 81.1766034799291 622.5469818252443 81.0851616518245 623.1562222495539 80.9937198237199 623.7696422776157 81.05074062442306 624.3830623056776 81.10776142512621 624.9650099366391 81.30993080302115 625.5469575676007 81.51210018091608 626.0636099778078 81.84766804226064 626.5802623880148 82.18323590360521 627.0015917151115 82.63269902853148 627.4229210422081 83.08216215345776 627.7244396059073 83.61939772402708 628.0259581696065 84.1566332945964 628.1901416968193 84.7504171542054 628.3543252240321 85.34420101381437 628.3716313604427 85.96002241664371 628.3889374968534 86.57584381947306 628.2583604090006 87.1779111966561 628.1277833211478 87.77997857383913 627.8569121555126 88.33329974112596 627.5860409898776 88.88662090841278 627.1906187913337 89.359036813563 626.7951965927898 89.83145271871321 626.7953830293529 89.831277952003 Z" fill="hsl(120, 100%, 25%)"></path></svg>