<svg width="200" height="200" viewBox="0 0 200 200" stroke="#5a0c25" fill="none" stroke-width="2.5" stroke-linecap="round" stroke-linejoin="round"  xmlns="http://www.w3.org/2000/svg">
    <path fill="#e84f7f" stroke="none" transform="translate(-10,-10)" d="M63.154 51.528c6.801-3.768 15.931-5.039 29.304-5.028 6.483 8.49 12.515 14.178 19.834 18.29 7.355 4.13 15.91 6.61 27.314 8.835 9.218 10.726 12.983 18.714 12.713 26.328-.27 7.629-4.591 15.286-12.672 25.346-13.54.931-22.652 3.352-29.795 7.852-7.075 4.458-12.055 10.858-17.505 19.403-8.133.512-15.017.691-20.778.303-5.949-.4-10.592-1.399-14.136-3.179-3.496-1.756-5.974-4.296-7.589-7.925-1.599-3.596-2.382-8.331-2.343-14.555 6.424-10.047 10.298-18.279 10.557-26.893.258-8.58-3.073-17.264-10.373-28.24 4.108-10.56 8.771-16.826 15.469-20.537Z"/><path d="M63.154 51.528c6.801-3.768 15.931-5.039 29.304-5.028 6.483 8.49 12.515 14.178 19.834 18.29 7.355 4.13 15.91 6.61 27.314 8.835 9.218 10.726 12.983 18.714 12.713 26.328-.27 7.629-4.591 15.286-12.672 25.346-13.54.931-22.652 3.352-29.795 7.852-7.075 4.458-12.055 10.858-17.505 19.403-8.133.512-15.017.691-20.778.303-5.949-.4-10.592-1.399-14.136-3.179-3.496-1.756-5.974-4.296-7.589-7.925-1.599-3.596-2.382-8.331-2.343-14.555 6.424-10.047 10.298-18.279 10.557-26.893.258-8.58-3.073-17.264-10.373-28.24 4.108-10.56 8.771-16.826 15.469-20.537Z"/>
</svg>