<svg xmlns="http://www.w3.org/2000/svg" version="1.1" xmlns:xlink="http://www.w3.org/1999/xlink" xmlns:svgjs="http://svgjs.dev/svgjs" viewBox="0 0 325 100"><rect width="100%" height="100%" fill=""></rect><g fill="#fada5e">
    <rect width="100%" height="40" fill="#fada5e"></rect>

    <rect x="0" width="5.26%" height="89.69089776329348" rx="12"></rect>
      <rect x="10.5263157894%" width="5.26%" height="80.21709739871683" rx="12"></rect>
      <rect x="21.0526315788%" width="5.26%" height="60.10234043038887" rx="12"></rect>
      <rect x="31.578947368199998%" width="5.26%" height="95.23437437293391" rx="12"></rect>
      <rect x="42.1052631576%" width="5.26%" height="65.79297235562704" rx="12"></rect>
      <rect x="52.631578947%" width="5.26%" height="63.398523342961" rx="12"></rect>
      <rect x="63.157894736399996%" width="5.26%" height="97.02590693729485" rx="12"></rect>
      <rect x="73.6842105258%" width="5.26%" height="97.13587659050314" rx="12"></rect>
      <rect x="84.2105263152%" width="5.26%" height="60.59375305990307" rx="12"></rect>
      <rect x="94.7368421046%" width="5.26%" height="82.16649142506489" rx="12"></rect>
  </g><g fill="">
    <rect x="5.26%" y="11.842609534254" width="5.26%" height="60" rx="12"></rect>
      <rect x="15.789473684099999%" y="16.804111347277843" width="5.26%" height="60" rx="12"></rect>
      <rect x="26.3157894735%" y="23.758854416992474" width="5.26%" height="60" rx="12"></rect>
      <rect x="36.8421052629%" y="12.52027676023094" width="5.26%" height="60" rx="12"></rect>
      <rect x="47.3684210523%" y="17.63924213977107" width="5.26%" height="60" rx="12"></rect>
      <rect x="57.8947368417%" y="10.181383160276054" width="5.26%" height="60" rx="12"></rect>
      <rect x="68.4210526311%" y="9.02079863422292" width="5.26%" height="60" rx="12"></rect>
      <rect x="78.9473684205%" y="11.595023664239948" width="5.26%" height="60" rx="12"></rect>
      <rect x="89.4736842099%" y="9.081374882395941" width="5.26%" height="60" rx="12"></rect>
  </g></svg>